<svg xmlns="http://www.w3.org/2000/svg" viewBox="0 0 398 398"><defs><style>.cls-1{fill:#fff;stroke-width:3px;}.cls-1,.cls-5{stroke:#3abfef;}.cls-1,.cls-2,.cls-5{stroke-miterlimit:10;}.cls-2{stroke:#231f20;}.cls-3{fill:#070808;}.cls-4{fill:#24abe1;}.cls-5{fill:none;stroke-width:3.03px;}.cls-6{fill:#3abfef;}.cls-7{fill:#231f20;}</style></defs><g id="Layer_2" data-name="Layer 2"><g id="Layer_1-2" data-name="Layer 1"><circle class="cls-1" cx="199" cy="199" r="197.5"/><path class="cls-2" d="M199,389.51c-3.46,0-6.93.1-10.38,0-5.54-.21-11-.81-16.52-1.55a172.43,172.43,0,0,1-20.93-4.12,195,195,0,0,1-29.39-10.21,190.47,190.47,0,0,1-32.93-18.73,174.17,174.17,0,0,1-19.1-15.49c-3.53-3.31-7-6.7-10.29-10.24-3-3.24-5.78-6.74-8.69-10.1a140.54,140.54,0,0,1-9.44-12.56c-2-2.93-3.78-6-5.73-9a119.68,119.68,0,0,1-6.23-11.1,215.4,215.4,0,0,1-8.77-19.78,174.74,174.74,0,0,1-7.08-23.23,180.46,180.46,0,0,1-3.58-20.13A206.41,206.41,0,0,1,8.38,196c.07-5,.52-10.07.93-15.09a147.83,147.83,0,0,1,2-15.58A169.29,169.29,0,0,1,16,145.75c.57-1.79,1.05-3.61,1.62-5.4a189.56,189.56,0,0,1,12.24-29.24A185.46,185.46,0,0,1,47,84.13,192,192,0,0,1,90.24,42.64a192,192,0,0,1,18.69-11.46,178.22,178.22,0,0,1,25.42-11.33,205.11,205.11,0,0,1,26.25-7.34c5-1.06,10.11-1.82,15.19-2.53,2.93-.4,5.9-.6,8.86-.78,5.13-.31,10.26-.68,15.4-.59,5.93.1,11.85.48,17.76,1a131.76,131.76,0,0,1,15,2c6.19,1.27,12.44,2.32,18.45,4.36,1.41.48,2.85.84,4.28,1.25a161.24,161.24,0,0,1,23.54,9A183,183,0,0,1,305.36,41a208,208,0,0,1,17,12.9c3.32,2.82,6.5,5.79,9.63,8.8,4.33,4.17,8.42,8.6,12.33,13.19,3.4,4,6.6,8.14,9.7,12.36,1.76,2.39,3.32,4.92,5,7.37a156.65,156.65,0,0,1,9.83,16.91c2.16,4.22,4.11,8.55,6,12.92a166,166,0,0,1,6.11,16.7,221.27,221.27,0,0,1,5.62,23.33c2.68,14.18,3.25,28.47,2.75,42.83a150.47,150.47,0,0,1-1.88,19.77,211.25,211.25,0,0,1-5.82,26c-1.5,5-3.18,10-5.11,14.86a175.19,175.19,0,0,1-8.56,18.58c-2,3.73-4,7.5-6.24,11.12-2.38,3.86-5,7.61-7.58,11.32-3,4.21-6.14,8.25-9.49,12.16a203.15,203.15,0,0,1-14,14.86c-4.58,4.38-9.34,8.53-14.33,12.43a181,181,0,0,1-15,10.62c-5.2,3.27-10.49,6.35-15.93,9.17-4.21,2.19-8.54,4.13-12.93,5.94a218.31,218.31,0,0,1-21.27,7.4,167.35,167.35,0,0,1-23.15,5A145.6,145.6,0,0,1,199,389.51ZM10.53,199A187,187,0,0,0,69,335.49c35.58,33.65,78.07,50.81,127,52.3,54.71,0,101.16-19.63,139.51-58.58q50.76-54.6,52.16-129.14c-.63-51.82-18.83-96.41-54.94-133.64-37.11-36.36-81.59-55.06-133.59-55.72C94.54,10.8,10.42,95.88,10.53,199Z"/><path class="cls-3" d="M300.42,80c-3.28,3.65-6,6.73-8.8,9.8q-.9,1-1.86,1.89a.75.75,0,0,1-1.07,0c-2.3-2-4.58-4-6.85-6.2L297.55,68c2.11-2.35,4.22-4.7,6.36-7,1-1,1.2-1.08,2.18-.22,1.85,1.63,3.65,3.32,5.5,5a2.1,2.1,0,0,1,.57,2.41c-1,3.5-2.06,7-3.1,10.5-.52,1.79-1.07,3.56-1.76,5.83a10.68,10.68,0,0,0,2.61-2.25c2.54-2.89,5.12-5.75,7.69-8.62a7.41,7.41,0,0,1,.61-.64.92.92,0,0,1,1.32-.06c.38.31.81.56,1.18.89,1.47,1.31,2.94,2.63,4.39,4,1,1,1.07,1.39.12,2.45-2.82,3.17-5.65,6.32-8.48,9.48q-5.53,6.16-11.08,12.32c-.59.66-1.21,1.31-1.84,1.93a.93.93,0,0,1-1.33.09c-.69-.56-1.39-1.11-2.05-1.7-1.33-1.17-2.62-2.38-3.95-3.56a1.59,1.59,0,0,1-.49-1.84c.61-2,1.12-4,1.69-6,.87-3,1.75-6,2.61-9.08A13.78,13.78,0,0,0,300.42,80Z"/><path class="cls-3" d="M156.73,51c3.29,3.73,7.6,6.44,10.83,10-.05.92-.61,1-1,1.17-2.69,1-5.41,1.82-8.07,2.86a2.24,2.24,0,0,1-2.66-.52c-2.9-2.67-5.85-5.29-8.78-7.92a3.49,3.49,0,0,0-.68-.55.66.66,0,0,0-.55,0,.59.59,0,0,0-.19.5c1,3,2.06,6,3.09,8.93.19.56.36,1.13.55,1.69a.8.8,0,0,1-.5,1.17c-2.69.94-5.39,1.85-8.09,2.77-.63.22-.93-.23-1.1-.67-.7-1.74-1.38-3.48-2-5.25q-4-11.43-8-22.88c-.36-1-1-2.16-.78-3.1.24-1.15,1.8-.9,2.73-1.38a55.36,55.36,0,0,1,6.39-2.32c1.66-.63,3.33-1.23,5-1.86a16.78,16.78,0,0,1,4.87-1.19c4.45-.27,7.6,1.83,9.63,5.6,2.15,4,2.28,8.1-.28,12.07-.11.16-.22.32-.32.49A2.07,2.07,0,0,0,156.73,51Zm-8.22-6.56a7,7,0,0,0-.34-1.42c-.82-1.91-1.78-2.26-3.75-1.45-.82.33-1.64.67-2.47,1a1,1,0,0,0-.74,1.36c.42,1.3.89,2.6,1.39,3.87a.94.94,0,0,0,1.24.49c1-.32,2.07-.65,3.07-1C148.22,46.73,148.55,46.17,148.51,44.47Z"/><path class="cls-3" d="M221.66,357.76c.12,2.07.32,4.13.36,6.2a10.72,10.72,0,0,1-1.88,6.71,9.51,9.51,0,0,1-7.29,4c-2.85.24-5.71.39-8.56.53a73.13,73.13,0,0,0-7.68.48,1.35,1.35,0,0,1-1.68-1.22,17.79,17.79,0,0,1-.12-2.06c-.28-5.72-.39-11.45-.87-17.14-.37-4.34-.34-8.68-.69-13-.08-1,.2-1.22,1.17-1.27q7.54-.36,15.08-.7c.89,0,1.78,0,2.66,0a9.41,9.41,0,0,1,8.79,7.44,30.39,30.39,0,0,1,.52,5.29c0,1.58,0,3.16,0,4.74Zm-17.45-4.47c.2,3.81.41,7.25.57,10.7.11,2.25.08,2.25,2.5,2.05.69-.06,1.39,0,2.07-.15a2.27,2.27,0,0,0,2-2.21,5.29,5.29,0,0,0,0-.89c-.19-3.64-.36-7.29-.58-10.93-.13-2.12-.84-2.83-3-2.78-4.16.11-3.63-.29-3.57,3.38Z"/><path class="cls-3" d="M338.05,93c.71,1,1.35,1.9,1.95,2.8,2.27,3.45,4.55,6.91,6.8,10.38a13.66,13.66,0,0,1,2.35,6,8.94,8.94,0,0,1-3.36,8.38,64.31,64.31,0,0,1-5.35,3.7c-2.31,1.52-4.67,3-7,4.49a19.13,19.13,0,0,1-4.29,2,7,7,0,0,1-4.66,0,11.86,11.86,0,0,1-6.43-4.94c-2.62-4.18-5.36-8.28-8.05-12.42-1-1.59-1-1.63.62-2.73q5.94-3.9,11.9-7.76L337,93.61C337.24,93.45,337.5,93.33,338.05,93Zm-15.71,22.51a11.09,11.09,0,0,0,2.24,3.54c1.13,1.37,2,1.49,3.56.51s2.82-1.79,4.22-2.7c1.81-1.18,3.64-2.33,5.4-3.58,1.56-1.09,1.7-2.11.69-3.77-.41-.67-.84-1.33-1.28-2-.57-.84-.86-1-1.68-.46C334,108,332.5,109,331,110Z"/><path class="cls-3" d="M235.05,41.76c.62-3.07,1.19-5.87,1.75-8.66.22-1.06.42-2.12.62-3.19a.93.93,0,0,1,1.27-.82c2.61.53,5.22,1.05,7.81,1.62,1.06.24,1.26.52,1.06,1.72-.4,2.44-.86,4.86-1.35,7.28q-1.69,8.41-3.46,16.82c-.5,2.41-1,4.82-1.56,7.23-.2.88-.61,1.15-1.5,1q-3.9-.84-7.8-1.72c-.92-.21-1-.49-.83-1.51.66-3.28,1.33-6.57,2-9.85.28-1.38,0-1.77-1.35-2.07-1.54-.33-3.09-.61-4.64-.93-.77-.17-1.09.24-1.22.9-.46,2.22-.9,4.45-1.35,6.68-.15.78-.26,1.57-.46,2.33-.74,2.86-.82,3-3.55,2.23-2-.56-4-.89-6-1.36a1.13,1.13,0,0,1-1-1.53c.92-4.55,1.87-9.1,2.8-13.65q1-5.07,2.05-10.15c.46-2.32.88-4.65,1.36-7,.32-1.5.63-1.72,2.28-1.42,2.43.43,4.84.94,7.25,1.47.84.18,1.08.66.9,1.55q-1,5.22-2.11,10.44c-.2,1-.06,1.19.95,1.39Z"/><path class="cls-3" d="M270.26,40.56a11.41,11.41,0,0,1,4.65.86,21.17,21.17,0,0,1,8,4.88,10.74,10.74,0,0,1,2.44,12c-.19.45-.42.89-.64,1.33q-5,9.76-9.91,19.53c-.51,1-.82,1.12-1.87.62q-3.35-1.59-6.63-3.28c-1.09-.55-1.16-.88-.55-2.15.9-1.86,1.84-3.7,2.77-5.55s.91-1.82-.77-2.66l-.27-.11c-1.36-.58-2.55-1.52-4.05-1.75-1.29.92-1.51,2.47-2.22,3.73s-1.21,2.26-1.81,3.39c-.51,1-.87,1.11-1.88.61-2.3-1.13-4.56-2.33-6.85-3.47-.65-.33-.86-.76-.54-1.42.86-1.77,1.71-3.56,2.59-5.32q3.45-6.87,6.92-13.72c.4-.79.91-1.53,1.32-2.31C263,42,266.28,40.68,270.26,40.56Zm5.78,13a2.57,2.57,0,0,0-.65-1.81,6.18,6.18,0,0,0-2.78-1.62,2.48,2.48,0,0,0-3,1.24c-.5.85-.89,1.76-1.37,2.62-1.57,2.79-1.51,2.42,1.22,3.75l.27.11c1.07.49,2.13,1.56,3.22,1.27,1.29-.35,1.35-2,2-3.1.24-.42.55-.82.76-1.26A7.9,7.9,0,0,0,276,53.54Z"/><path class="cls-3" d="M73.9,96.61c2-1.28,3.14-3.27,4.66-5.1a13.17,13.17,0,0,0-3.26-3.39q-2.72-2.28-5.4-4.6c-.72-.62-.79-1.1-.23-1.77,1.66-2,3.32-3.91,5-5.84.87-1,1.26-1,2.23-.18q3.52,3,7,6,5.17,4.42,10.33,8.89c2.54,2.19,5.07,4.39,7.69,6.67A96.87,96.87,0,0,1,95.25,105c-3.56-2.37-6.36-5.63-10-8.13-1,1-2.07,2-3,3.15-2.28,2.7-1.81,2.29.28,4.06C84.78,106,87,108,89.18,110c.85.76.91,1.15.22,2C87.7,114,86,116,84.21,118a.9.9,0,0,1-1.32.16c-.47-.36-1-.71-1.4-1.09q-9-7.69-18-15.4c-1.73-1.48-3.44-3-5.13-4.49-.92-.83-.93-1.08-.2-2,1.64-2,3.3-4,5-5.9.79-.93,1.25-.93,2.23-.08l7.59,6.6C73.21,96.14,73.55,96.35,73.9,96.61Z"/><path class="cls-3" d="M117.05,85.27a4,4,0,0,1-1.45,1.4c-1.78,1.23-3.55,2.48-5.33,3.72-1.09.75-1.54.64-2.38-.58l-4.33-6.36c-2.44-3.58-4.91-7.14-7.33-10.73a24.26,24.26,0,0,1-2.3-4.14,8.3,8.3,0,0,1-.07-6.31A15.63,15.63,0,0,1,101,53.91a19.2,19.2,0,0,1,5.06-2.37c4.94-1.27,9.39.21,12.3,4.68s6.11,9,9.18,13.43c1.17,1.7,2.35,3.4,3.51,5.12a1,1,0,0,1-.31,1.54q-3.27,2.3-6.58,4.53a1.11,1.11,0,0,1-1.77-.36c-1.4-2-2.76-4.09-4.14-6.13-.48-.7-.8-.8-1.46-.39s-1.29.9-1.92,1.37c-.87.63-1.73,1.28-2.59,1.93a9.78,9.78,0,0,0,1.78,3.28C115,82,116,83.49,117,85,117.06,85,117,85.16,117.05,85.27ZM112.78,66.4c-.92-1.4-1.76-2.73-2.66-4-1.25-1.75-2.45-2-4.3-1a6.81,6.81,0,0,0-1.62,1.25,2.11,2.11,0,0,0-.28,3c1,1.57,2.1,3.07,3.22,4.69A21.3,21.3,0,0,0,112.78,66.4Z"/><path class="cls-3" d="M302,339.34a9,9,0,0,1-7.23-3c-1.78-1.84-3.36-3.88-5-5.84-1.4-1.66-2.78-3.34-4.16-5a13.16,13.16,0,0,1-1.09-1.4c-2-3.12-2.54-6.35-.94-9.83a17.53,17.53,0,0,1,13.15-10.35,9.66,9.66,0,0,1,9.76,3.62c3,3.55,5.93,7.12,8.82,10.75s2.88,7.34.87,11.34c-2.25,4.51-6,7.2-10.48,9.1A7.89,7.89,0,0,1,302,339.34Zm-5.08-25.64a5,5,0,0,0-2.22.89c-2,1.31-2.28,2.85-.84,4.71,1.34,1.71,2.76,3.35,4.14,5,1.07,1.29,2.08,2.64,3.21,3.87a2.81,2.81,0,0,0,4,.5,4.12,4.12,0,0,0,.72-.52c1.33-1.25,2-2.78.56-4.39-1.56-1.77-2.92-3.73-4.52-5.47-1-1.09-1.88-2.28-2.82-3.42A2.85,2.85,0,0,0,296.94,313.7Z"/><path class="cls-3" d="M124.52,320.3c2.42,1.15,4.93,2.29,7.39,3.53,1.37.69,1.45,1,.81,2.31-1.74,3.65-3.52,7.28-5.31,10.91-1.44,2.92-2.93,5.81-4.35,8.74-.6,1.24-.43,1.87.61,2.89a5.26,5.26,0,0,0,3,1.74,2.26,2.26,0,0,0,2.66-1.36c1-2,2-4.05,3-6.08l6.54-13.26a6.73,6.73,0,0,1,.75-1.27.82.82,0,0,1,1.05-.27c2.56,1.28,5.13,2.55,7.68,3.85a.86.86,0,0,1,.33,1.26c-.87,1.87-1.7,3.78-2.62,5.64-2.34,4.78-4.72,9.54-7.09,14.31-.17.35-.29.74-.49,1.07-2.77,4.76-6.5,6-11.84,5.3a19.38,19.38,0,0,1-10.92-5.54,10.41,10.41,0,0,1-2.38-12.23c1.37-3,2.94-6,4.4-9,1.59-3.28,3.16-6.58,4.75-9.85A4.9,4.9,0,0,1,124.52,320.3Z"/><path class="cls-3" d="M186,49.29a17.11,17.11,0,0,0,0,5.06c.1,1.38.22,2.75.32,4.13.05.68-.2,1.16-.93,1.24-2.55.27-5.1.54-7.65.77-1.62.15-1.88-.1-2-1.74q-.77-10.77-1.54-21.54c-.24-3.35-.48-6.69-.7-10-.06-.87.3-1.27,1.17-1.38a6.55,6.55,0,0,1,.89-.05,64.56,64.56,0,0,0,7.08-.46c1.09-.12,1.37.15,1.47,1.3.19,2.16.33,4.33.49,6.5.07,1,.13,2,.2,3,0,.06.14.11.21.17a.32.32,0,0,0,.52-.05c.52-.82,1.06-1.64,1.53-2.5,1.32-2.42,2.69-4.82,3.86-7.32a2.92,2.92,0,0,1,3-1.81c2.36-.05,4.72-.3,7.08-.43.77-.05,1.1.45.76,1.12L196.18,36A26.41,26.41,0,0,0,195,38.39c-.38,1-1.55,1.81-1.3,2.88A10.21,10.21,0,0,0,195.36,44L202.42,55c.53.82,1,1.67,1.53,2.52.29.5,0,.94-.57,1l-.29.05c-2.56.19-5.12.43-7.68.54-3.28.13-2.53.38-4.26-2.15C189.53,54.61,188,52.23,186,49.29Z"/><path class="cls-3" d="M262.68,326.47c.85,2.07,1.77,4.23,2.63,6.42.39,1,.19,1.44-.83,1.85-2.37.94-4.77,1.84-7.16,2.72a17.36,17.36,0,0,0-3.44,1.67,2,2,0,0,0-1,2.28,8.32,8.32,0,0,0,.44,1.39c.9,2.3,1.78,4.6,2.71,6.89.47,1.18,1,2.36,1.55,3.5a2.12,2.12,0,0,0,2.87,1.34,31,31,0,0,0,3-1.14c2.38-.93,4.75-1.88,7.13-2.8,1.16-.44,1.57-.25,2,.92.72,1.83,1.42,3.67,2.07,5.53.38,1.08.22,1.49-.78,1.86-4.7,1.75-9.23,4-14.09,5.27a9.49,9.49,0,0,1-11.25-4.79,13.76,13.76,0,0,1-.74-1.61c-1.46-3.66-2.93-7.32-4.35-11a31.16,31.16,0,0,1-1.17-3.66,9.16,9.16,0,0,1,4.32-10.38,40.44,40.44,0,0,1,5.06-2.41c3.09-1.27,6.23-2.45,9.36-3.65A1.92,1.92,0,0,1,262.68,326.47Z"/><path class="cls-3" d="M86.23,329.91a13.62,13.62,0,0,1-8-2.73,15.53,15.53,0,0,1-1.62-1.29c-.76-.76-2.08-1.18-2.24-2.24s1.2-1.65,1.85-2.47a41.85,41.85,0,0,1,3-3.28c.76-.77.93-.72,1.73-.1s1.7,1.36,2.59,2a1.74,1.74,0,0,0,2.41-.22c.62-.63,1.28-1.23,1.87-1.89q6.25-6.89,12.49-13.8c.33-.36.67-.71,1-1.06a.89.89,0,0,1,1.31,0c.38.31.75.65,1.11,1,1.7,1.51,3.4,3,5.08,4.52.68.61.72,1.1.11,1.75-2.66,2.9-5.35,5.79-8,8.69-2.46,2.68-5,5.32-7.34,8.1A9.06,9.06,0,0,1,86.23,329.91Z"/><path class="cls-3" d="M74.74,131a21,21,0,0,1-2.94,9.4,1.09,1.09,0,0,1-1.5.54c-2-1-4-2.08-6-3.18-.82-.46-.89-.84-.35-1.68a7,7,0,0,0,1.12-2.39,2.69,2.69,0,0,0-1.54-3.43c-2.6-1.4-5.22-2.75-7.84-4.11-3.58-1.87-7.17-3.72-10.75-5.58-1.09-.57-1.31-1.12-.79-2.12,1.23-2.36,2.5-4.7,3.76-7a1,1,0,0,1,1.47-.48c1.64.89,3.28,1.79,4.93,2.67,4.87,2.57,9.72,5.19,14.64,7.68C73,123.25,74.49,126.63,74.74,131Z"/><path class="cls-3" d="M159.46,369.65c.25-1.35.49-2.71.76-4.06,1.18-5.89,2.38-11.76,3.55-17.65.66-3.28,1.28-6.57,1.93-9.85.17-.86.54-1.15,1.46-1q3.92.72,7.82,1.53c1.13.23,1.36.56,1.15,1.62-.38,1.94-.83,3.86-1.2,5.79-1,4.84-1.87,9.68-2.81,14.52q-1,5.07-2.05,10.14c-.08.39-.19.77-.29,1.15a1,1,0,0,1-1.28.88c-.68-.14-1.35-.27-2-.43l-6.05-1.39A1.08,1.08,0,0,1,159.46,369.65Z"/><path class="cls-3" d="M356.49,197.86H342.54c-.59,0-1.18,0-1.78,0s-1-.43-1.05-1.13c0-1,.2-1.39,1-1.51a13.19,13.19,0,0,1,1.77-.14c5.14-.1,10.28-.18,15.42-.29,4.54-.09,9.09-.13,13.63-.38,1.81-.1,2.27.75,2,2.33a1,1,0,0,1-1,.92c-.39,0-.79,0-1.18,0H356.49Z"/><path class="cls-3" d="M41.66,197.66H26.27c-.57,0-1.22.1-1.49-.63a2.46,2.46,0,0,1,.09-2.27c.23-.38.63-.37,1-.36,1.77,0,3.55,0,5.32.07l24.25.59a15.76,15.76,0,0,1,2.06.18.85.85,0,0,1,.7.83c.13,1.51,0,1.8-1.48,1.8-5,0-10.07,0-15.1,0Z"/><path class="cls-3" d="M28.07,178.28c1.84-.08,3.94.57,6.1.81,6.95.76,13.91,1.56,20.86,2.36,1.08.12,2.16.25,3.23.43a1.16,1.16,0,0,1,1,1.52c-.14.9-.55,1.3-1.34,1.22L44.4,183.21,29.7,181.7c-.88-.1-1.77-.17-2.65-.3-1.48-.22-1.7-.52-1.47-1.91.18-1.09.45-1.32,1.55-1.28C27.33,178.21,27.52,178.24,28.07,178.28Z"/><path class="cls-3" d="M28.72,162.26a7.43,7.43,0,0,1,2.88.31c6.94,1.5,13.89,3,20.83,4.49,2.61.56,5.2,1.15,7.8,1.74,1.2.27,1.52,1.1.88,2.22a.89.89,0,0,1-1,.49l-9.27-1.82c-6.77-1.33-13.53-2.68-20.3-4C27.72,165.14,27.67,165.09,28.72,162.26Z"/><path class="cls-3" d="M370,178.29c.49,0,1-.08,1.48-.1a.91.91,0,0,1,1,.85,7.87,7.87,0,0,1,.12,1.18,1,1,0,0,1-.84,1.05c-.68.14-1.37.24-2.05.32q-9,1-18,1.9-5.61.58-11.22,1.09c-1.44.13-1.58-.32-1.56-1.81a.83.83,0,0,1,.71-.83c.78-.14,1.56-.26,2.34-.35,5.8-.67,11.6-1.31,17.4-2,2.65-.31,5.29-.72,7.93-1.06.88-.12,1.77-.19,2.66-.28Z"/><path class="cls-3" d="M60.36,223.46a.9.9,0,0,1-.66.71,16.74,16.74,0,0,1-1.74.35l-22.44,4c-2.33.41-4.67.79-7,1.19-.66.11-1.16,0-1.31-.77-.07-.38-.29-.75-.33-1.13a1.05,1.05,0,0,1,.71-1.17,21.14,21.14,0,0,1,2.61-.52c4.3-.67,8.6-1.31,12.9-2,4.48-.71,9-1.47,13.44-2.2.78-.13,1.56-.26,2.34-.33S60.45,222.26,60.36,223.46Z"/><path class="cls-3" d="M370,164.31c0,.76-.53,1-1.14,1.11l-6.95,1.37c-4.82,1-9.64,1.93-14.46,2.87-3.09.61-6.18,1.19-9.27,1.78-.78.14-1.11-.14-1.38-1.12a1,1,0,0,1,.68-1.39,5.15,5.15,0,0,1,.56-.16l18.47-4,9.8-2.14c.48-.11,1-.26,1.44-.33C369.65,162,369.85,162.22,370,164.31Z"/><path class="cls-3" d="M339.36,221.6c3.12.46,6.26.78,9.35,1.41,5.7,1.18,11.49,1.85,17.22,2.83,1.36.23,2.74.41,4.1.66.89.16,1.12.5,1.06,1.43a5,5,0,0,1-.11.88,1,1,0,0,1-1.25.91l-3.21-.51-27.35-4.81c-.69-.12-1.38-.18-1.49-1.1C337.53,222,338,221.52,339.36,221.6Z"/><path class="cls-3" d="M367.78,243.38c-.15.57-.29,1.15-.47,1.71a.62.62,0,0,1-.71.39,12.09,12.09,0,0,1-1.46-.27q-12-3.24-24-6.5c-1.81-.49-3.59-1.07-5.38-1.63-.79-.24-1.1-.68-.94-1.23.31-1.08.76-1.47,1.55-1.29s1.52.42,2.28.61c7.85,2,15.7,4,23.54,6,1.62.41,3.23.92,4.83,1.41A1.08,1.08,0,0,1,367.78,243.38Z"/><path class="cls-3" d="M363,258.85a13.53,13.53,0,0,1-.57,1.66.93.93,0,0,1-.71.41,7.77,7.77,0,0,1-1.71-.42q-8.6-3.21-17.18-6.45c-3.69-1.4-7.37-2.84-11.06-4.26-.58-.22-1.08-.51-1.09-1.23a1.38,1.38,0,0,1,1.52-1.42,9.27,9.27,0,0,1,1.4.48q12,4.26,24,8.53c1.58.57,3.12,1.22,4.67,1.86A1.08,1.08,0,0,1,363,258.85Z"/><path class="cls-3" d="M334.74,158.64a1.1,1.1,0,0,1-1.25-.87c-.18-.58-.34-1.21.33-1.56a10.32,10.32,0,0,1,1.67-.59l18.93-5.94c3.19-1,6.37-2.05,9.57-3.05,1.38-.43,1.39-.39,1.85,1a4.36,4.36,0,0,1,.28.84.94.94,0,0,1-.7,1.13l-2.56.73-20.14,5.94c-2.36.69-4.72,1.37-7.08,2.07C335.27,158.45,334.91,158.59,334.74,158.64Z"/><path class="cls-3" d="M364.41,143.41a1,1,0,0,1-.71.88c-1.84.68-3.68,1.36-5.54,2-7.1,2.38-14.21,4.73-21.32,7.1-1,.34-2,.71-3.08,1a1.11,1.11,0,0,1-1.58-.84c-.28-.85-.11-1.4.6-1.74a10.39,10.39,0,0,1,1.1-.42L361,142.05a3.86,3.86,0,0,0,.83-.28c.52-.29,1.09-.72,1.64-.38S364.21,142.69,364.41,143.41Z"/><path class="cls-3" d="M56.91,180c-3.93-.23-8-1.19-12.07-1.69-5.57-.68-11.14-1.45-16.7-2.19a6.8,6.8,0,0,1-1.44-.28,1,1,0,0,1-.5-.65c-.31-1.59.44-2.44,2.06-2.23,3.31.44,6.61.95,9.92,1.44l14.59,2.18c1.95.29,3.9.55,5.83.9,1.15.21,1.44.84,1,1.94-.18.49-.47.87-1.07.8S57.6,180.09,56.91,180Z"/><path class="cls-3" d="M27.28,213.66c-1.21.12-1.73.14-2-.39a2.41,2.41,0,0,1-.12-2.27,1.13,1.13,0,0,1,1-.5c2.17-.17,4.34-.34,6.51-.48l24-1.48a9.36,9.36,0,0,1,1.18-.08c.58,0,.83.45.91,1s.09,1.29-.61,1.48a15.45,15.45,0,0,1-2.63.39l-21.26,1.81C31.69,213.35,29.11,213.22,27.28,213.66Z"/><path class="cls-3" d="M62,234.52a1.05,1.05,0,0,1,1.15.87,1.14,1.14,0,0,1-.22,1.36,2.11,2.11,0,0,1-.76.39c-2.17.65-4.34,1.3-6.53,1.9q-11.12,3-22.23,6.05l-.86.23c-1.4.31-2-.11-2.24-1.54a1,1,0,0,1,.63-1.18c1.5-.48,3-.95,4.53-1.34q12.31-3.19,24.63-6.33C60.72,234.76,61.4,234.64,62,234.52Z"/><path class="cls-3" d="M86.16,283.3a1,1,0,0,1-.43,1c-1.17.91-2.36,1.79-3.54,2.68l-20.1,15.14c-.47.36-.93.73-1.43,1.05-.88.56-1.3.45-2-.44-.85-1.11-.81-1.59.34-2.42,3.76-2.72,7.53-5.41,11.29-8.14,4.39-3.18,8.76-6.39,13.14-9.58.16-.12.3-.27.46-.38C85,281.49,86,282,86.16,283.3Z"/><path class="cls-3" d="M60.49,167.05c-3.08-.68-6.45-1.39-9.81-2.17Q42.34,163,34,161c-1.15-.28-2.26-.68-3.39-1-.54-.15-1.26,0-1.43-.75a3.06,3.06,0,0,1,.52-2c.09-.19.48-.28.75-.3a2.94,2.94,0,0,1,.87.12q13.18,3.21,26.36,6.42c1.24.3,2.47.68,3.69,1.06.91.29,1.13.69.9,1.53S61.7,167.21,60.49,167.05Z"/><path class="cls-3" d="M336.93,167.14c-.63-.07-.9-.29-1-.74s-.31-1.23.27-1.63a4.19,4.19,0,0,1,1.38-.48c4-1,8-2,12.05-3,5.55-1.35,11.12-2.66,16.67-4,.38-.09.75-.24,1.14-.3.66-.11,1.08.19,1.23.94.24,1.26.56,1.61-1.09,2.09-2.76.79-5.55,1.38-8.34,2l-19.6,4.58C338.69,166.83,337.72,167,336.93,167.14Z"/><path class="cls-3" d="M372.53,213.74c-3.07-.22-6.22-.42-9.36-.68-6.59-.55-13.18-1.13-19.77-1.7-1.08-.09-2.16-.19-3.23-.36-.66-.11-.89-.76-.71-1.7.1-.54.37-.92,1-.88l3.84.29,26.61,1.71,1.19.08a1.05,1.05,0,0,1,1,1.18A2.89,2.89,0,0,1,372.53,213.74Z"/><path class="cls-3" d="M36.48,261c-.2-.11-.57-.19-.68-.4a6.26,6.26,0,0,1-.61-1.66c0-.2.19-.52.38-.7a2.27,2.27,0,0,1,.76-.43c2.31-.87,4.62-1.74,6.93-2.58q9.89-3.59,19.77-7.13c.93-.34,1.86-.66,2.8-.93.68-.19,1,.09,1.3.86a1.11,1.11,0,0,1-.43,1.53,23.93,23.93,0,0,1-2.45,1q-8.56,3.3-17.14,6.58c-3.22,1.23-6.46,2.41-9.7,3.61A7.55,7.55,0,0,1,36.48,261Z"/><path class="cls-3" d="M83.7,279.72a1,1,0,0,1-.48,1q-5.43,3.84-10.89,7.67l-13.76,9.73-1.22.85a1,1,0,0,1-1.55-.2,5.77,5.77,0,0,1-.64-1,1.09,1.09,0,0,1,.39-1.54l4.4-3,16.86-11.51c1.55-1.06,3.08-2.13,4.64-3.17C82.52,277.86,83.54,278.39,83.7,279.72Z"/><path class="cls-3" d="M35.1,141.31a7,7,0,0,1,.76.21L54.55,148c3.54,1.24,7.08,2.47,10.61,3.73.89.32,1.09.76.88,1.58-.26,1-.73,1.4-1.68,1.09-2.43-.78-4.85-1.63-7.28-2.45q-11.36-3.81-22.71-7.64c-.43-.15-1-.39-.75-1s.12-1.65,1.1-2A2.3,2.3,0,0,1,35.1,141.31Z"/><path class="cls-3" d="M69,252.67a1,1,0,0,1-.7,1.11c-1.18.51-2.37,1-3.56,1.49-6.83,2.81-13.67,5.6-20.5,8.42-1.64.68-3.24,1.44-4.89,2.1-1.18.48-1.52.29-2-.91-.07-.18-.12-.38-.18-.56-.17-.52-.14-1,.45-1.21.36-.16.72-.33,1.08-.47,3.94-1.56,7.89-3.1,11.81-4.68,5-2,9.87-4,14.81-6,.54-.22,1.09-.45,1.65-.64C68.15,250.91,68.81,251.35,69,252.67Z"/><path class="cls-3" d="M354.43,278.23a12.4,12.4,0,0,1-.54,1.46c-.6,1.1-1.06,1.27-2.14.7-2.44-1.27-4.86-2.6-7.29-3.89l-19.27-10.27c-.35-.18-.7-.37-1-.58-.76-.48-.82-.83-.3-1.7s.92-1,1.66-.63c1.85.92,3.68,1.88,5.52,2.83l17.57,9.08Z"/><path class="cls-3" d="M33.22,146.36l.88.28,20,6.35c2.72.87,5.46,1.7,8.18,2.55.57.17,1.14.32,1.69.53.78.31.92.7.67,1.67s-.64,1.1-1.55.83c-3.77-1.11-7.52-2.27-11.29-3.38-5.95-1.75-11.91-3.47-17.86-5.2-.28-.09-.57-.17-.84-.27-1-.35-1.22-.71-1-1.78a3.75,3.75,0,0,1,.43-1.08A2.3,2.3,0,0,1,33.22,146.36Z"/><path class="cls-3" d="M59.21,217.18c.18.53.33.89.42,1.27a1.09,1.09,0,0,1-.77,1.39,7.81,7.81,0,0,1-1.46.24c-7,1-14.09,1.95-21.13,3-2.34.34-4.67.8-7,1.2-.39.06-.78.14-1.17.17-1.54.16-2-.22-2-1.76,0-.88.26-1.32,1.11-1.44,2.06-.27,4.12-.48,6.18-.75,3.81-.49,7.62-1,11.43-1.52C49.59,218.33,54.38,217.77,59.21,217.18Z"/><path class="cls-3" d="M340.45,217.36c2.29.27,5,.58,7.77.93q8.37,1.08,16.73,2.19c1.76.23,3.52.42,5.29.64,1.49.18,1.77.58,1.5,2.19-.16,1-.41,1.2-1.36,1.13-.58-.05-1.17-.16-1.75-.25-2.83-.44-5.65-.93-8.48-1.34-6.45-.94-12.9-1.84-19.36-2.76-.49-.07-1-.1-1.46-.2a1.35,1.35,0,0,1-.89-2C338.79,217.17,339.41,217.3,340.45,217.36Z"/><path class="cls-3" d="M361.17,263.42a11.17,11.17,0,0,1-.37,1.18c-.57,1.35-.89,1.72-2.44,1.06-4.06-1.76-8.16-3.44-12.25-5.14l-14.75-6.11c-.55-.23-1.11-.42-1.64-.68-.69-.33-.81-.74-.53-1.44.42-1,.69-1.3,1.45-1.06,1.41.45,2.81.93,4.18,1.48,5.22,2.08,10.43,4.2,15.64,6.31Z"/><path class="cls-3" d="M76.67,268.77a1.56,1.56,0,0,1-.74.91c-2.4,1.35-4.8,2.71-7.18,4.08L51.6,283.62c-1,.59-2.07,1.13-3.12,1.68-.66.35-1.12.07-1.47-.5l-.15-.26c-.7-1.2-.61-1.68.62-2.37,2.76-1.54,5.55-3,8.3-4.52q9.16-5.08,18.32-10.2c.17-.1.35-.18.52-.27.88-.45,1.4-.24,1.82.76A5.44,5.44,0,0,1,76.67,268.77Z"/><path class="cls-3" d="M351.7,283.31a3.23,3.23,0,0,1-1.13,2c-.36.29-.76.11-1.1-.08-1.39-.75-2.78-1.49-4.15-2.27l-17.9-10.31c-1.7-1-3.42-1.95-5.11-3a1.59,1.59,0,0,1,0-2.66c.43-.31.75-.06,1.07.11l6.47,3.56L350,281.82a8.29,8.29,0,0,1,1.24.77A2.65,2.65,0,0,1,351.7,283.31Z"/><path class="cls-3" d="M45.18,280.7c-.61-.08-.77-.59-1-1-.59-1.15-.47-1.56.61-2.13,2.36-1.24,4.72-2.45,7.09-3.67l19.74-10.12c.35-.18.7-.36,1.06-.51a1.09,1.09,0,0,1,1.48.56c.43.79.37,1.46-.27,1.83-2,1.13-3.94,2.24-6,3.3q-10.17,5.42-20.36,10.78c-.61.32-1.23.62-1.86.91A2,2,0,0,1,45.18,280.7Z"/><path class="cls-3" d="M370.07,172.92c1.22,0,1.52.29,1.6,1,0,.2,0,.4,0,.59,0,1.12-.17,1.37-1.31,1.52-4.31.58-8.63,1.12-12.93,1.71-4.5.62-9,1.29-13.49,1.91-1.56.22-3.14.39-4.71.52-.56,0-.89-.32-1-.89-.17-1,0-1.59.65-1.71,2.14-.38,4.28-.72,6.43-1,3.61-.53,7.22-1,10.81-1.66,3.3-.61,6.65-.93,10-1.39C367.61,173.31,369.07,173.08,370.07,172.92Z"/><path class="cls-3" d="M325.36,261.09c.19-.45.37-.89.56-1.33a.81.81,0,0,1,1-.51,7.91,7.91,0,0,1,1.67.59q7.08,3.33,14.15,6.7,6.29,3,12.54,6c.27.13.52.29.78.43a.87.87,0,0,1,.48,1.21,10.41,10.41,0,0,1-.5,1.07,1,1,0,0,1-1.49.42c-1.85-.91-3.73-1.79-5.58-2.71q-11.43-5.64-22.83-11.3A4.55,4.55,0,0,1,325.36,261.09Z"/><path class="cls-3" d="M333.4,242.93c.24.06.62.15,1,.27,2.8.92,5.61,1.85,8.42,2.76,3.64,1.19,7.3,2.36,10.95,3.53l8.46,2.66c.56.18,1.13.34,1.68.56a1.16,1.16,0,0,1,.71,1.64c-.1.28-.19.56-.31.83a1.06,1.06,0,0,1-1.45.62c-2.7-.93-5.4-1.88-8.09-2.82-.47-.17-.93-.36-1.39-.51l-19-6.49c-.46-.16-.91-.36-1.37-.54s-.75-.33-.71-.81a1.9,1.9,0,0,1,.69-1.55A2.31,2.31,0,0,1,333.4,242.93Z"/><path class="cls-3" d="M336.69,305.91a2.62,2.62,0,0,1-1.08,1.68,1,1,0,0,1-1.36-.08c-1.1-.84-2.19-1.68-3.27-2.54l-19.82-15.92c-.46-.37-.92-.74-1.36-1.13a1.46,1.46,0,0,1,.21-2.43.7.7,0,0,1,.82-.07c.41.26.8.56,1.19.86L334.94,304a18.15,18.15,0,0,1,1.53,1.38A1.51,1.51,0,0,1,336.69,305.91Z"/><path class="cls-3" d="M89,287a2.8,2.8,0,0,1-.41.69c-.59.53-1.22,1-1.84,1.51q-5.28,4.27-10.58,8.55-5.78,4.62-11.57,9.22c-.16.13-.33.23-.49.34-1.09.71-1.39.67-2.23-.34s-.83-1.18.06-1.92c1.9-1.57,3.82-3.1,5.77-4.61q9.11-7.1,18.25-14.15c.23-.18.46-.37.7-.54.86-.6,1.33-.52,1.93.39A7.79,7.79,0,0,1,89,287Z"/><path class="cls-3" d="M29,238.31a1.05,1.05,0,0,1,1-1.23c3.48-.74,6.94-1.51,10.41-2.28q8.37-1.85,16.75-3.69c1.15-.25,2.28-.59,3.44-.82,1-.2,1.26,0,1.49.9s0,1.42-1.08,1.68c-1.53.37-3.07.7-4.6,1.07-5.27,1.28-10.57,2.48-15.81,3.88-3.06.81-6.14,1.48-9.18,2.32C29.37,240.7,29.07,239.7,29,238.31Z"/><path class="cls-3" d="M34.74,256c-.25-.12-.63-.17-.75-.38a5.61,5.61,0,0,1-.67-1.62,1.09,1.09,0,0,1,.66-1.21,18.74,18.74,0,0,1,2-.65C42.4,250.07,48.86,248,55.31,246c2.34-.75,4.65-1.6,7-2.38a17.85,17.85,0,0,1,2.29-.58.94.94,0,0,1,1.11.74c.16.57.37,1.19-.31,1.56a10.42,10.42,0,0,1-1.62.67q-9.48,3.24-19,6.48c-3,1-5.94,2.07-8.91,3.12Z"/><path class="cls-3" d="M347.59,290.42c-4-2.4-7.76-4.69-11.53-7q-7.8-4.8-15.57-9.63c-.33-.21-.7-.37-1-.61a.85.85,0,0,1-.24-1.05c.52-1.41,1.19-1.62,2.44-.87,5.57,3.34,11.16,6.65,16.74,10,3.21,1.91,6.41,3.83,9.6,5.8,1.16.72,1.15.88.46,2.11C348.29,289.49,348,289.79,347.59,290.42Z"/><path class="cls-3" d="M337.54,230.27c1.89.45,3.89.95,5.9,1.4l24.46,5.41c1.28.29,1.44.59,1.12,1.84-.37,1.44-.61,1.62-2,1.28-7.18-1.73-14.37-3.41-21.52-5.25-2.84-.73-5.68-1.5-8.55-2.12-.88-.19-1.13-.67-.92-1.51S336.56,230.14,337.54,230.27Z"/><path class="cls-3" d="M25.16,192a3,3,0,0,1-.33-2.11c0-.58.27-.94.87-.91,1.87.06,3.75.13,5.61.24,1.38.07,2.76.21,4.13.29l18,1,4.13.23a.86.86,0,0,1,.93.9c.05,1-.25,1.53-.93,1.56-1,0-2,0-3,0L33,192.4C30.39,192.29,27.74,192.14,25.16,192Z"/><path class="cls-3" d="M51.78,292.4c1.74-1.16,3.27-2.22,4.84-3.22q11-7,21.94-14c.33-.21.68-.4,1-.58a.8.8,0,0,1,1,.28c.91,1.1.86,1.65-.27,2.39L56.62,292.86c-.57.38-1.13.78-1.68,1.19-1.43,1-1.72,1-2.72-.65A10,10,0,0,1,51.78,292.4Z"/><path class="cls-3" d="M70.63,256.91c0,.6-.43.8-.9,1-2.71,1.2-5.4,2.41-8.09,3.64l-18,8.23c-.72.33-1.43.67-2.17.95-1,.41-1.37.27-1.86-.73-.64-1.3-.53-1.68.75-2.33.7-.35,1.46-.6,2.18-.92l22-9.46c1.36-.59,2.67-1.28,4-1.84A1.39,1.39,0,0,1,70.63,256.91Z"/><path class="cls-3" d="M41.4,273.38c1.81-.94,3.69-2,5.63-2.89,6.94-3.26,13.9-6.48,20.85-9.72,1-.46,1.91-1,2.89-1.45.78-.36,1.18-.14,1.58.74a1.1,1.1,0,0,1-.53,1.7,2.07,2.07,0,0,0-.25.15c-3.26,1.6-6.53,3.19-9.78,4.8l-16.94,8.34c-.44.22-.86.47-1.31.65a1,1,0,0,1-1.47-.5A3.46,3.46,0,0,1,41.4,273.38Z"/><path class="cls-3" d="M31.78,248.18a3.25,3.25,0,0,1,1.84-.84c5.47-1.61,11-3.15,16.42-4.74,3.87-1.13,7.73-2.32,11.6-3.47a12.06,12.06,0,0,1,1.43-.38,1.36,1.36,0,0,1,1.47,1.17c.17.59-.07,1.07-.81,1.31q-5.48,1.76-11,3.47L36.2,249.88c-.84.27-1.69.54-2.55.76-1,.27-1.31.09-1.65-1a6.36,6.36,0,0,1-.25-.85A2.89,2.89,0,0,1,31.78,248.18Z"/><path class="cls-3" d="M366.23,249.17a5.33,5.33,0,0,1-.25.92.94.94,0,0,1-1.17.64c-1-.25-1.9-.54-2.84-.83l-22.55-7c-1.7-.52-3.38-1.09-5.06-1.65a1,1,0,0,1-.72-1.38c.25-.92.64-1.3,1.42-1.11,1.54.38,3.06.79,4.58,1.24l25.52,7.57C365.72,247.77,366.38,247.8,366.23,249.17Z"/><path class="cls-3" d="M48.84,288c1.14-.8,2.14-1.59,3.22-2.23,4.83-2.87,9.7-5.68,14.54-8.55,3.31-1.95,6.6-3.95,9.89-5.94,1.15-.69,1.69-.5,2.2.79a.93.93,0,0,1-.37,1.27c-2,1.26-4,2.5-6,3.75-3.34,2.09-6.66,4.21-10,6.27-3.53,2.17-7.09,4.29-10.65,6.41-1,.61-1.12.58-1.89-.45C49.44,288.89,49.19,288.47,48.84,288Z"/><path class="cls-3" d="M63.39,161.16c.11,1.09-.63,1.87-1.56,1.64-2.4-.58-4.82-1.1-7.17-1.84-5-1.57-10.07-2.67-15.09-4-2.76-.74-5.52-1.46-8.26-2.24-1-.28-1-.53-.68-1.53.57-1.68.67-1.74,2.29-1.33a17.53,17.53,0,0,1,2.29.61,67.57,67.57,0,0,0,7.37,2.16q9.39,2.61,18.76,5.27a11,11,0,0,1,1.64.65A.63.63,0,0,1,63.39,161.16Z"/><path class="cls-3" d="M41.2,207.48c-4.83.23-9.67.44-14.51.7-2,.1-2.05-.34-1.85-2.34a.78.78,0,0,1,.81-.7c1.29,0,2.58-.07,3.86-.11q11.85-.39,23.71-.8c1.37,0,2.75-.18,4.12-.25.75,0,1,.44,1.12,1.1.1.91-.2,1.45-1,1.53-1.38.15-2.76.24-4.14.31-4.05.19-8.1.36-12.15.54Z"/><path class="cls-3" d="M346.38,292.5c-1.64,2.49-1.63,2.47-3.92,1-5.12-3.32-10.28-6.6-15.39-9.94-3.21-2.1-6.35-4.3-9.53-6.46-.41-.28-.85-.56-.61-1.16A2,2,0,0,1,318,274.6c.41-.15.75.14,1.08.35,3.41,2.16,6.83,4.3,10.23,6.47q8,5.1,15.91,10.23C345.55,291.86,345.85,292.11,346.38,292.5Z"/><path class="cls-3" d="M314.21,280a7.38,7.38,0,0,1,.36-.81c.71-1.15,1.1-1.28,2.09-.63,1.65,1.09,3.28,2.2,4.9,3.31l20.74,14.19c.39.27.89.47.86,1.08s-1,2-1.55,2a1.87,1.87,0,0,1-1.07-.37c-2.12-1.44-4.22-2.91-6.31-4.39-3.14-2.22-6.26-4.45-9.39-6.67-2.57-1.83-5.12-3.68-7.7-5.5-.48-.34-1-.61-1.52-.91l0-.2-.2,0a.9.9,0,0,0-.45-.32A1.29,1.29,0,0,0,314.21,280Z"/><path class="cls-3" d="M358.42,207.53l-15.75-.71a20.26,20.26,0,0,1-2.06-.22c-.84-.13-1.07-.52-1-1.47a1.07,1.07,0,0,1,1.09-1.13,9.53,9.53,0,0,1,1.77,0c5.21.59,10.45.25,15.67.59,4.62.3,9.25.5,13.88.55,1.32,0,1.91,1.3,1.23,2.55a1,1,0,0,1-1,.51c-1.88,0-3.75-.09-5.62-.18C363.36,207.83,360.11,207.63,358.42,207.53Z"/><path class="cls-3" d="M365.93,151.65a1.08,1.08,0,0,1,1.29.76,6.46,6.46,0,0,1,.24,1.16,1,1,0,0,1-.68,1.13c-.47.16-.95.28-1.42.41-6.28,1.62-12.59,3.12-18.82,4.91-3.22.92-6.46,1.77-9.69,2.63a3.35,3.35,0,0,1-1.16.18c-.7-.05-.93-.63-1.08-1.22a.89.89,0,0,1,.58-1.18c1.21-.4,2.43-.79,3.66-1.14,7.39-2,14.79-4.08,22.18-6.14,1.33-.37,2.62-.85,3.94-1.27A8.35,8.35,0,0,1,365.93,151.65Z"/><path class="cls-3" d="M313.28,281.77a5.67,5.67,0,0,1,.9.47c3.73,2.75,7.44,5.54,11.18,8.27,4.23,3.09,8.48,6.13,12.73,9.19.48.35,1,.65,1.46,1a1,1,0,0,1,.25,1.54,8.08,8.08,0,0,1-.72.94,1,1,0,0,1-1.32.22,11.11,11.11,0,0,1-1.22-.85L315.68,287q-1.79-1.33-3.52-2.71a1,1,0,0,1-.28-1.31C312.16,282.42,312.44,281.86,313.28,281.77Z"/><path class="cls-3" d="M368.66,235c-1.61-.35-3.14-.7-4.67-1l-25.73-5.28c-1.25-.26-1.48-.58-1.26-1.81.17-.94.41-1.14,1.42-1a37.7,37.7,0,0,1,4.37.78c4.2,1.14,8.51,1.71,12.76,2.56l13.33,2.62a4,4,0,0,1,.83.31.72.72,0,0,1,.48.92c-.07.29-.13.58-.2.86C369.71,235,369.55,235.11,368.66,235Z"/><path class="cls-3" d="M328.7,255.18a7.73,7.73,0,0,1,.91.3c2.17.94,4.33,1.92,6.5,2.86l20.91,9c.28.12.55.23.81.37,1.14.63,1.31,1.27.65,2.43a1.21,1.21,0,0,1-1.73.64c-1.73-.73-3.45-1.49-5.16-2.26l-16.95-7.75-6.73-3.07a.82.82,0,0,1-.57-.91C327.45,256.08,328.06,255.23,328.7,255.18Z"/><path class="cls-3" d="M29.6,235A1.23,1.23,0,0,1,28,234c-.42-1.29-.11-1.91,1.14-2.15,6.68-1.29,13.36-2.55,20-3.85,2.9-.56,5.79-1.21,8.68-1.81.58-.12,1.16-.25,1.75-.32,1-.12,1.45.25,1.58,1.27.12.87-.16,1.3-1,1.47l-6.36,1.27c-6.37,1.3-12.73,2.59-19.09,3.91C32.93,234.18,31.12,234.62,29.6,235Z"/><path class="cls-3" d="M356.57,192.67c-4.34.2-8.68.41-13,.59a23.52,23.52,0,0,1-3.25-.08c-.78-.08-.72-.8-.74-1.38s.21-1,.82-1c2.57-.18,5.13-.38,7.69-.53q10.49-.61,21-1.19c.89-.05,1.78-.1,2.67-.1a1.7,1.7,0,0,1,1.53,2.6c-.19.43-.59.48-1,.5-2.17.1-4.34.21-6.51.3l-9.18.34Z"/><path class="cls-3" d="M341.84,188.87c-.84,0-1,.07-1.24.07a1.36,1.36,0,0,1-1.3-1.8.66.66,0,0,1,.58-.54c1.27-.21,2.52-.49,3.8-.61,4.72-.44,9.44-.82,14.17-1.23l12.4-1c.49,0,1-.1,1.48-.11.91,0,1.16.22,1.29,1.21,0,.3,0,.59.06.89,0,.62-.32.87-.89.92-2.06.19-4.12.4-6.19.56-4.92.36-9.84.72-14.76,1.05C347.89,188.46,344.52,188.39,341.84,188.87Z"/><path class="cls-3" d="M342.76,213.1c5.79.57,11.57,1.16,17.36,1.72,2.84.27,5.69.49,8.53.77a28.82,28.82,0,0,1,3.2.52c.78.17.91.56.74,1.62s-.37,1.26-1.28,1.16c-3.82-.41-7.63-.84-11.45-1.24-2.64-.28-5.29-.49-7.93-.78s-5.46-.7-8.2-1c-1.27-.16-2.55-.23-3.81-.4a1.38,1.38,0,0,1-.8-2.08,1,1,0,0,1,.7-.42,9.14,9.14,0,0,1,1.47.09l1.47.13Z"/><path class="cls-3" d="M37.8,202.57l-10.65.26c-.49,0-1,0-1.48,0a1,1,0,0,1-1.09-1.08,5.8,5.8,0,0,1,0-1.18,1,1,0,0,1,1-.88l2.37,0q10.2,0,20.42,0c2.76,0,5.52-.08,8.28-.12,1.45,0,1.63.23,1.55,1.79a.79.79,0,0,1-.66.83,6.52,6.52,0,0,1-.88.07l-18.92.46Z"/><path class="cls-3" d="M56.46,188.91c-3.45-.69-7.32-.45-11.16-.86-4.12-.45-8.27-.57-12.41-.85-2.36-.17-4.72-.38-7.08-.59a.79.79,0,0,1-.79-1,8.89,8.89,0,0,1,.13-.88c.2-1,.35-1.19,1.36-1.11,2.86.21,5.71.45,8.57.69q9,.78,18,1.59c1.67.15,3.33.41,5,.63.62.08.78.48.74,1s0,1.23-.81,1.33C57.61,189,57.21,188.91,56.46,188.91Z"/><path class="cls-3" d="M28.45,218.69c-.49.05-1,.13-1.47.16-1.18.08-1.38-.11-1.5-1.28s0-1.3.91-1.51a21.57,21.57,0,0,1,2.63-.45q14.16-1.35,28.33-2.65c1.33-.12,1.69.16,1.8,1.27a1.05,1.05,0,0,1-.68,1.16,2,2,0,0,1-.58.13L45.23,216.9c-2.45.27-4.91.51-7.36.79l-9.41,1.1Z"/><path class="cls-3" d="M338.68,175.89a1,1,0,0,1-1-.95c-.07-.55-.33-1.2.4-1.54a4.37,4.37,0,0,1,1.11-.36q9.88-1.81,19.76-3.61c3.48-.63,7-1,10.45-2a1,1,0,0,1,1.36.75,6.38,6.38,0,0,1,.22.86c.15.94,0,1.3-.95,1.48-2.12.41-4.24.83-6.38,1.17-6.6,1.05-13.22,2.05-19.82,3.1-1.45.23-2.88.62-4.32.93C339.2,175.82,338.9,175.85,338.68,175.89Z"/><path class="cls-3" d="M59.14,175.85c-1.11-.18-2.1-.27-3-.52-3.33-.91-6.77-1.17-10.15-1.77-5.81-1-11.63-1.95-17.44-2.95-1.45-.25-1.44-.32-1.26-1.71a5.73,5.73,0,0,1,.07-.58,1,1,0,0,1,1.27-.85c2.22.42,4.44.86,6.67,1.26,4.16.77,8.33,1.51,12.49,2.27l11,2a7.62,7.62,0,0,1,1.13.32c.67.22.84.66.58,1.39C60.13,175.67,59.81,175.91,59.14,175.85Z"/><path class="cls-3" d="M356.75,199.67c5.05,0,10.09,0,15.14,0a1.73,1.73,0,0,1,1.61,2.6,1,1,0,0,1-.7.46,10.45,10.45,0,0,1-1.77.09q-9.93-.14-19.87-.31c-3.35-.06-6.71-.17-10.07-.29-1.19,0-1.58-.59-1.34-1.72a1,1,0,0,1,1-.92c1.48,0,3,0,4.45,0h11.56Z"/><path class="cls-3" d="M333.27,309.65c.18.79-.51,1.42-.88,1.32a5.49,5.49,0,0,1-2-1.26c-6.05-5.07-12.12-10.12-18.11-15.25-1.35-1.15-2.66-2.34-4.07-3.43a6.81,6.81,0,0,1-1.05-1,.68.68,0,0,1,.1-1c.23-.19.48-.35.79-.13s.5.32.72.51c4.85,4,9.67,8.11,14.53,12.13,2.82,2.33,5.71,4.56,8.53,6.87C332.44,308.83,333.15,309.25,333.27,309.65Z"/><path class="cls-3" d="M91.06,289.34a1.5,1.5,0,0,1-.7,1.25q-3.75,3.12-7.49,6.25c-3.31,2.79-6.61,5.6-9.92,8.38-2,1.72-4.08,3.4-6.13,5.1a4.68,4.68,0,0,1-.71.53.8.8,0,0,1-1-.19c-.28-.31-.44-.68-.09-1a21.81,21.81,0,0,1,1.7-1.63c5.48-4.5,11-9,16.46-13.48,2-1.63,3.88-3.33,5.84-5a7.51,7.51,0,0,1,1.23-.78C90.48,288.63,91.08,289.08,91.06,289.34Z"/><path class="cls-3" d="M331.49,150.35a3.15,3.15,0,0,1-.68-.58.68.68,0,0,1,.27-1c1-.46,2-.83,3-1.21,5.88-2.22,11.77-4.41,17.65-6.64a90.25,90.25,0,0,0,8.81-3.37,3,3,0,0,1,1.43-.16.58.58,0,0,1,.55.59c0,.27,0,.66-.18.8a4.8,4.8,0,0,1-1.29.67c-4.7,1.71-9.43,3.36-14.12,5.1-4.42,1.64-8.8,3.38-13.21,5.07C333,149.89,332.25,150.1,331.49,150.35Z"/><path class="cls-3" d="M36.36,137.18c.41.13.79.22,1.15.36L57.11,145c2.67,1,5.36,2,8,3a12.55,12.55,0,0,1,1.86.86.59.59,0,0,1,.15.8c-.14.26-.3.59-.64.51a9.5,9.5,0,0,1-2.25-.63,49.74,49.74,0,0,0-5.24-2l-21.9-8.06a4.81,4.81,0,0,1-1.33-.64.82.82,0,0,1-.07-1.07A2.84,2.84,0,0,1,36.36,137.18Z"/><path class="cls-4" d="M314.21,280a1.29,1.29,0,0,1,.72.81C314.42,280.8,314.12,280.59,314.21,280Z"/><polygon class="cls-4" points="315.38 281.15 315.58 281.14 315.62 281.34 315.43 281.34 315.38 281.15"/><polygon class="cls-4" points="222.72 129.03 222.63 129.07 222.68 128.95 222.72 129.03"/><circle class="cls-5" cx="199.28" cy="197.57" r="125.68"/><path class="cls-6" d="M107.16,147.66A104.14,104.14,0,0,1,117,135.45v73.63a196.57,196.57,0,0,1-.94,20.15,57.55,57.55,0,0,1-2.88,14.1c-1.29,3.29-2.6,4.77-3.91,4.72-1.83-.05-3.94-2.22-6.17-6.17a76.32,76.32,0,0,1-4-8.46A78.44,78.44,0,0,1,96,223.83c-.79-3-1.46-6.11-2-9.12s-.93-5.29-1.13-7.17c-.31-3-.46-5.11-.46-6.87v-21.3a112.89,112.89,0,0,1,5.93-16V204.7a40.46,40.46,0,0,0,1,9.72c.71,2.9,1.72,5.28,3.12,6.68s2.55,1.12,3.41-1.14,1.31-6.3,1.31-11.81Z"/><path class="cls-3" d="M124.5,128.21A107.6,107.6,0,0,1,143,115.27c3.88-2.15,7.13-1.6,9.62,1.66s4.6,8.79,6.26,16.55a203.17,203.17,0,0,1,3.65,28.09c.76,10.94,1.14,22.66,1.14,35.06,0,19.41-.56,34.45-1.69,44.89s-2.69,19-4.66,25.42-4.06,10.3-6.27,11.62c-3,1.84-5.69,2-8.05.65a107.05,107.05,0,0,1-18.51-12.94Zm12.19,26.26v85.44c1,.37,2.1.73,3.16,1.07,2.72.89,4.71.29,5.9-1.79s2.12-6.08,2.8-12,1-15.79,1-29.45c0-18.1-.77-30.41-2.28-36.66s-4-8.79-7.39-7.67C138.82,153.73,137.75,154.09,136.69,154.47Z"/><path class="cls-6" d="M211.4,199.86q5.25,4.63,10.42,9.12-.81,11.36-1.56,18.26t-2.12,16.32q2.49,6.63,5,13.09c.61,1.47,1.38,3.21,2.33,5.21-2.36,11.09-4.73,22.3-7.12,33.56q-2-3.85-4.08-9.11c-1.41-3.51-2.68-6.55-3.8-9.09-2.34,6.26-4.67,10.84-7,13.68-3.25,3.91-6.94,5.78-11.07,5.45-6.46-.51-11.23-6.72-14.33-17.67S173.4,255,173.4,240.25a157.39,157.39,0,0,1,2.72-29.92,71.25,71.25,0,0,1,9-24.25c-1.75-8.38-3-15.58-3.61-21.7a176.43,176.43,0,0,1-1-18.69q0-20.08,3.9-33.68c2.61-9.07,6.58-14,11.93-14.25s9.46,4.18,12,12.7,3.82,18.66,3.82,30.32A145.59,145.59,0,0,1,211,159.57a98.45,98.45,0,0,1-2.82,14.6q-1.65,5.61-5.92,16.77c2.36,9.37,4.82,18.09,7.37,26.08Q210.69,208.88,211.4,199.86Zm-20.28,12.95a76.85,76.85,0,0,0-3.69,13.09,70.82,70.82,0,0,0-.9,11.55,64.67,64.67,0,0,0,2.07,17.06c1.39,5.05,3.2,7.65,5.43,7.75,2.4.1,5.11-3.56,8.11-11C199.27,242.5,195.59,229.62,191.12,212.81Zm4.8-46.67a59,59,0,0,0,4-12.31,59.91,59.91,0,0,0,1.42-12.55,39.61,39.61,0,0,0-1.19-10.45c-.79-2.84-1.89-4.25-3.28-4.21s-2.49,1.66-3.35,4.84a43.25,43.25,0,0,0-1.29,11.19C192.27,148.07,193.49,155.86,195.92,166.14Z"/><path class="cls-7" d="M235,105.34a109.34,109.34,0,0,1,14,5.07v60.77c5,.66,9.8,1.44,14.4,2.33V118.16a99.54,99.54,0,0,1,12.1,9.18V267.15a100.49,100.49,0,0,1-12.1,9.17v-64c-4.6.57-9.42,1.06-14.4,1.48v70.25a109.34,109.34,0,0,1-14,5.07Z"/><path class="cls-6" d="M283,134.65a100,100,0,0,1,13.72,19.17,63.12,63.12,0,0,1,5.15,13.12c1.17,4.25,2.05,8.37,2.71,12.1s1.09,7,1.36,9.87.39,5.51.39,8.2a84.62,84.62,0,0,1-.59,10.82c-.4,3.22-1,6.79-1.79,10.78a103.21,103.21,0,0,1-2.84,11.15,68.19,68.19,0,0,1-4.39,10.8A100.41,100.41,0,0,1,283,259.84Zm9.65,35.15v54.82c.72-.6,1.42-1.21,2.11-1.83a13.29,13.29,0,0,0,3.55-5.22,32.71,32.71,0,0,0,1.52-7.17,114.83,114.83,0,0,0,.53-13c0-7.62-.38-13-1.2-16.83s-2.2-7-4.36-9C294.07,171,293.35,170.41,292.62,169.8Z"/></g></g></svg>